<?xml version="1.0" standalone="no"?>
<!DOCTYPE svg PUBLIC "-//W3C//DTD SVG 20010904//EN"
 "http://www.w3.org/TR/2001/REC-SVG-20010904/DTD/svg10.dtd">
<svg version="1.0" xmlns="http://www.w3.org/2000/svg"
 width="300.000000pt" height="396.000000pt" viewBox="0 0 300.000000 396.000000"
 preserveAspectRatio="xMidYMid meet">
<metadata>
Created by potrace 1.10, written by Peter Selinger 2001-2011
</metadata>
<g transform="translate(0.000000,396.000000) scale(0.100000,-0.100000)"
fill="#000000" stroke="none">
<path d="M1470 3892 l0 -49 68 -6 c127 -10 241 -73 273 -148 9 -24 10 -48 2
-103 -5 -39 -6 -81 -2 -93 9 -26 -8 -32 -29 -11 -7 7 -34 11 -66 9 -55 -2 -55
-2 -82 40 -25 40 -26 43 -8 56 39 28 99 4 136 -54 21 -35 23 -36 26 -15 7 50
-70 119 -166 148 -75 23 -228 24 -302 1 -69 -20 -143 -68 -159 -103 -16 -36
-8 -40 23 -11 40 37 77 50 109 38 32 -13 33 -19 6 -65 -19 -32 -25 -36 -63
-36 -23 0 -47 -5 -53 -11 -18 -18 -31 -2 -48 53 -31 105 -13 186 51 230 18 13
34 25 33 28 -1 16 -26 100 -31 105 -8 9 -132 -40 -193 -77 l-53 -32 85 -165
c47 -91 89 -169 92 -173 4 -4 29 -1 56 8 39 11 59 12 92 4 23 -5 44 -10 47
-10 3 0 6 16 8 37 5 59 40 78 148 78 108 0 143 -19 148 -79 3 -38 3 -38 72
-20 9 2 40 -2 70 -10 30 -8 56 -14 56 -13 1 1 20 39 43 85 23 46 62 120 86
164 25 44 45 84 45 89 0 12 -78 56 -158 89 -71 30 -184 55 -294 65 l-68 6 0
-49z m130 3 c87 -10 119 -23 113 -45 -5 -17 -8 -18 -51 -4 -26 8 -65 17 -87
19 -22 3 -48 8 -58 11 -18 6 -18 6 0 19 10 7 20 12 23 10 3 -2 30 -6 60 -10z
m293 -82 c26 -15 47 -30 47 -35 0 -5 5 -6 10 -3 23 14 -4 -69 -30 -95 -3 -3
-25 -46 -50 -97 -45 -94 -62 -114 -39 -46 28 84 16 162 -33 219 -18 20 -42 40
-55 45 -25 9 -29 29 -13 59 9 18 11 18 62 -2 29 -11 74 -31 101 -45z m-723 10
c0 -8 -15 -33 -34 -55 -19 -22 -40 -59 -47 -84 -7 -24 -17 -44 -21 -44 -10 0
-55 79 -63 112 -6 25 -2 28 66 61 72 35 99 38 99 10z m396 -162 c27 -6 67 -18
89 -28 l40 -18 -35 -3 c-19 -2 -43 -11 -52 -19 -15 -13 -29 -14 -85 -7 -41 5
-91 5 -125 0 -49 -8 -61 -7 -76 7 -10 10 -34 17 -53 17 l-34 1 27 14 c72 40
204 55 304 36z"/>
<path d="M1257 3913 c-16 -15 -3 -18 62 -13 92 7 99 18 13 19 -38 0 -72 -2
-75 -6z"/>
<path d="M1336 3851 c5 -4 32 -5 59 -1 l50 7 -59 2 c-35 0 -56 -3 -50 -8z"/>
<path d="M858 3708 c-53 -51 -95 -105 -87 -112 6 -5 152 154 147 160 -3 2 -30
-19 -60 -48z"/>
<path d="M2077 3681 c74 -76 96 -92 76 -56 -17 30 -126 135 -140 135 -8 0 21
-36 64 -79z"/>
<path d="M717 3533 c-19 -32 -46 -83 -60 -115 l-25 -56 195 -137 c149 -104
198 -134 204 -124 5 8 9 47 9 87 l0 73 -142 162 c-77 89 -142 163 -143 165 -2
2 -19 -23 -38 -55z m187 -138 c25 -27 46 -56 46 -63 0 -7 4 -11 9 -7 5 3 12
-3 16 -14 3 -11 12 -22 20 -25 19 -7 22 -136 4 -136 -7 0 -81 48 -165 108
-122 85 -154 112 -154 130 0 24 30 89 62 134 l19 27 48 -52 c27 -29 69 -74 95
-102z"/>
<path d="M2162 3565 c-12 -15 -48 -57 -80 -94 -33 -36 -87 -97 -121 -136 l-61
-69 0 -72 c0 -39 7 -91 15 -114 8 -24 16 -61 17 -82 1 -21 4 -38 7 -38 2 0
101 37 217 82 207 80 213 84 208 108 -31 141 -115 354 -167 424 -13 18 -14 17
-35 -9z m35 -62 c7 -10 25 -43 40 -73 14 -30 31 -58 36 -61 20 -13 -3 -36
-114 -115 -177 -126 -221 -155 -227 -149 -9 9 -1 139 9 150 5 5 9 17 9 27 0
10 5 18 11 18 11 0 39 28 94 94 63 77 110 126 119 126 5 0 15 -8 23 -17z m87
-212 c3 -4 13 -35 21 -67 20 -75 24 -72 -174 -148 -161 -63 -170 -63 -171 -9
0 17 34 45 152 127 84 58 156 106 160 106 4 0 9 -4 12 -9z"/>
<path d="M1390 3459 c0 -41 5 -81 10 -89 6 -10 7 14 3 70 -3 47 -7 87 -9 89
-2 2 -4 -29 -4 -70z"/>
<path d="M1533 3435 c0 -44 2 -61 4 -37 2 23 2 59 0 80 -2 20 -4 1 -4 -43z"/>
<path d="M1863 3390 c17 -27 33 -45 35 -39 5 13 -35 76 -53 83 -8 3 -1 -16 18
-44z"/>
<path d="M1062 3402 c-11 -15 -24 -41 -27 -58 -5 -22 1 -15 24 25 34 59 35 79
3 33z"/>
<path d="M1638 3389 c-10 -5 -18 -20 -18 -32 0 -18 11 -26 53 -42 28 -11 55
-21 59 -23 3 -2 14 13 23 32 10 20 19 36 21 36 11 0 34 -64 34 -94 0 -19 5
-38 10 -41 13 -8 13 39 0 87 -16 54 -61 88 -118 88 -26 0 -55 -5 -64 -11z m92
-39 c8 -5 11 -12 8 -15 -10 -10 -69 5 -62 16 7 12 35 11 54 -1z"/>
<path d="M1193 3380 c-27 -11 -28 -21 -8 -60 l15 -29 60 22 c72 26 80 50 23
66 -45 13 -60 13 -90 1z"/>
<path d="M591 3318 c-20 -61 -51 -183 -51 -203 0 -5 7 0 15 13 27 37 78 252
60 252 -2 0 -13 -28 -24 -62z"/>
<path d="M1130 3338 c-20 -34 -30 -139 -10 -108 5 8 10 30 10 48 0 18 7 46 15
62 21 40 10 38 -15 -2z"/>
<path d="M1302 3255 c-73 -66 -122 -183 -122 -292 0 -48 10 -36 16 19 17 145
62 231 159 303 11 8 15 15 9 15 -7 0 -35 -20 -62 -45z"/>
<path d="M1629 3242 c66 -65 97 -134 111 -245 9 -70 20 -101 20 -55 0 50 -29
177 -49 217 -27 52 -76 108 -111 126 -19 10 -10 -3 29 -43z"/>
<path d="M1154 3222 c-56 -49 -105 -172 -103 -262 1 -37 3 -31 15 39 17 101
40 155 89 210 43 47 43 51 -1 13z"/>
<path d="M1780 3215 c56 -67 83 -140 88 -233 3 -52 8 -79 13 -70 12 18 2 100
-23 181 -16 51 -32 80 -66 115 -35 37 -37 39 -12 7z"/>
<path d="M565 3098 c-11 -45 -23 -202 -24 -315 l-2 -114 23 5 c13 3 120 15
238 27 118 12 218 25 222 28 4 4 3 22 -2 41 -5 19 -13 69 -16 111 l-7 77 -196
75 c-108 42 -204 79 -213 82 -12 5 -19 0 -23 -17z m190 -85 c55 -22 113 -43
128 -47 15 -3 27 -11 27 -16 0 -6 9 -10 19 -10 23 0 28 -7 35 -43 3 -17 0 -28
-7 -28 -41 -5 -172 9 -312 32 l-60 10 1 42 c3 115 1 109 37 104 17 -3 77 -23
132 -44z m-30 -137 c17 -3 84 -13 150 -22 66 -9 122 -17 124 -19 1 -2 -1 -10
-5 -17 -5 -7 -7 -23 -6 -35 2 -11 -1 -24 -6 -27 -11 -7 -256 -34 -342 -38
l-65 -3 -5 89 -5 88 65 -6 c36 -3 79 -8 95 -10z"/>
<path d="M2386 3112 c-11 -19 4 -169 20 -206 13 -29 14 -24 8 54 -9 119 -18
168 -28 152z"/>
<path d="M1385 3084 c-63 -32 -115 -105 -115 -159 0 -22 -4 -25 -34 -25 -31 0
-155 -22 -198 -36 -10 -3 -18 -11 -18 -18 0 -9 19 -8 83 4 171 35 162 35 176
-10 42 -142 227 -186 331 -78 20 20 42 55 48 77 14 46 9 45 177 10 49 -10 90
-19 92 -19 2 0 3 6 3 14 0 16 -107 44 -201 53 -57 6 -57 6 -63 43 -8 50 -57
115 -105 140 -49 24 -133 27 -176 4z m127 -14 c48 -14 97 -55 114 -97 27 -64
32 -62 -162 -62 l-175 0 7 22 c20 66 61 111 121 132 47 17 49 17 95 5z m125
-194 c4 -4 -4 -28 -17 -54 -68 -127 -251 -120 -311 12 l-18 41 37 7 c48 8 300
4 309 -6z"/>
<path d="M2132 2861 c-210 -28 -205 -26 -216 -96 -4 -22 -21 -86 -38 -142 -17
-57 -29 -104 -27 -106 2 -1 104 -69 226 -150 122 -81 224 -147 226 -147 4 0
37 115 55 190 l8 35 -210 76 c-263 96 -274 100 -259 106 6 2 17 26 24 54 7 27
18 49 25 49 6 0 9 10 7 23 -7 36 19 54 89 62 35 4 104 13 153 21 50 8 107 14
128 14 l38 0 -3 -77 -3 -78 -30 3 c-23 2 -27 1 -15 -7 8 -6 25 -11 38 -11 18
0 21 -4 18 -22 -6 -30 -19 -136 -20 -167 -2 -40 22 -35 28 6 10 63 26 264 26
331 l0 62 -37 -1 c-21 -1 -125 -13 -231 -28z m-137 -297 c39 -14 79 -29 90
-32 11 -3 22 -8 25 -12 3 -3 25 -12 50 -19 25 -7 71 -22 103 -34 55 -21 65
-34 57 -72 -1 -5 -4 -19 -6 -30 -11 -57 -22 -79 -42 -86 -16 -6 -22 -5 -22 6
0 8 -5 15 -10 15 -6 0 -20 9 -32 20 -12 11 -30 20 -40 20 -11 0 -17 4 -14 9 3
5 -15 17 -40 28 -25 11 -46 24 -47 29 -1 5 -7 8 -14 8 -7 -1 -11 3 -10 10 1 6
-6 10 -15 10 -10 -1 -16 3 -15 10 1 6 -6 10 -15 10 -10 -1 -18 5 -18 13 0 9
-6 13 -15 9 -9 -3 -15 0 -15 9 0 14 -12 20 -33 16 -5 -1 -6 3 -2 9 3 5 2 10
-3 10 -17 0 -22 30 -9 50 15 25 8 25 92 -6z"/>
<path d="M1186 2785 c8 -93 31 -196 81 -365 76 -259 83 -292 89 -385 5 -80 3
-100 -21 -175 -15 -47 -40 -111 -56 -142 -16 -32 -29 -64 -29 -72 0 -20 110
-29 265 -23 66 3 132 6 148 6 34 1 34 14 1 77 -52 97 -84 215 -84 305 0 90 13
145 93 420 43 145 68 261 81 369 10 85 -11 8 -29 -104 -9 -60 -20 -118 -25
-130 -4 -11 -15 -48 -25 -81 -9 -33 -29 -103 -45 -155 -27 -91 -45 -157 -56
-210 -10 -50 -4 -211 10 -259 8 -26 26 -74 41 -107 49 -106 48 -103 12 -109
-94 -16 -126 -11 -66 12 31 12 31 12 24 65 -9 64 -9 62 -24 118 -14 51 -56
120 -73 120 -6 0 -5 -7 5 -18 9 -10 25 -38 36 -62 24 -55 56 -199 46 -208 -4
-4 -58 -7 -122 -7 -96 0 -110 -2 -86 -12 l28 -11 -35 -4 c-40 -4 -100 11 -100
25 0 5 9 26 20 46 62 116 74 160 74 291 1 134 3 122 -104 490 -17 58 -38 143
-46 190 -8 47 -19 103 -24 125 -8 34 -8 31 -4 -20z"/>
<path d="M1857 2773 c-19 -115 -18 -110 -6 -83 11 27 25 120 16 120 -2 0 -7
-17 -10 -37z"/>
<path d="M1077 2741 c3 -36 11 -81 19 -100 18 -51 16 -20 -6 79 l-19 85 6 -64z"/>
<path d="M520 2645 c0 -16 5 -69 12 -119 9 -73 13 -86 21 -69 11 26 -7 191
-23 207 -7 7 -10 1 -10 -19z"/>
<path d="M805 2533 c-126 -47 -231 -87 -233 -88 -2 -2 8 -47 23 -101 33 -119
88 -249 140 -329 46 -70 190 -219 204 -211 5 3 11 0 14 -7 3 -7 27 -24 53 -37
27 -14 51 -27 54 -30 6 -6 73 -30 83 -30 4 0 7 7 7 15 0 9 10 32 23 53 60 97
108 226 77 207 -5 -3 -10 -13 -10 -22 0 -17 -81 -184 -105 -216 -13 -18 -16
-17 -72 14 -32 17 -70 38 -85 46 -16 8 -28 19 -28 24 0 11 227 429 240 442 4
5 -4 36 -18 69 -20 46 -28 56 -33 41 -3 -10 2 -38 13 -63 l19 -44 -23 -46
c-12 -25 -25 -47 -28 -50 -4 -3 -39 -66 -79 -141 -40 -75 -81 -146 -91 -157
-10 -11 -16 -23 -13 -26 4 -3 3 -6 -1 -6 -4 0 -45 36 -92 81 l-84 80 43 47
c24 26 96 106 161 177 65 72 131 142 147 158 28 25 29 29 16 55 -8 15 -27 62
-42 105 -15 42 -33 77 -39 76 -6 -1 -114 -39 -241 -86z m253 7 l22 -29 -210
-141 c-192 -128 -242 -157 -225 -130 4 6 -3 49 -15 96 -11 48 -20 87 -18 88
16 11 388 144 404 145 12 1 29 -11 42 -29z m22 -95 c19 -23 3 -49 -82 -141
-41 -43 -96 -104 -124 -134 -58 -65 -106 -110 -117 -110 -4 0 -23 32 -42 72
-26 53 -32 75 -24 84 6 8 42 32 79 56 38 23 67 45 64 50 -3 4 1 8 10 8 8 0 58
29 112 65 54 36 101 65 105 65 4 0 12 -7 19 -15z"/>
<path d="M1787 2488 c-9 -29 -15 -54 -13 -56 2 -2 12 20 21 48 9 28 15 53 13
55 -2 3 -12 -19 -21 -47z"/>
<path d="M1822 2453 c-23 -35 -23 -35 -5 -57 61 -68 359 -392 367 -398 9 -6
-65 -99 -114 -143 -12 -11 -36 -38 -54 -60 l-31 -40 63 50 c53 41 119 115 176
195 10 13 9 13 -6 1 -15 -11 -18 -11 -18 1 0 19 23 68 33 68 4 0 7 6 7 13 0 7
9 29 20 50 24 44 27 65 7 48 -8 -6 -19 -28 -26 -48 -6 -21 -22 -51 -36 -68
l-24 -29 -53 55 c-29 31 -91 98 -138 150 -47 52 -102 112 -122 135 -35 37 -37
43 -28 74 5 19 9 35 7 36 -1 1 -13 -13 -25 -33z"/>
<path d="M1739 2357 c-13 -34 -25 -66 -27 -70 -3 -5 6 -3 17 5 12 7 31 33 41
56 17 37 18 46 6 57 -12 12 -17 4 -37 -48z"/>
<path d="M1696 2188 c-35 -83 -38 -97 -34 -162 4 -74 22 -123 98 -268 l37 -69
89 45 c49 25 95 50 102 54 11 7 -16 64 -118 251 -73 132 -133 241 -133 241 -1
0 -19 -41 -41 -92z m140 -154 c86 -155 114 -210 114 -226 0 -5 -30 -23 -66
-40 -78 -36 -75 -37 -129 70 -50 101 -65 147 -65 204 0 53 36 151 53 145 6 -2
48 -70 93 -153z"/>
<path d="M1200 2227 c0 -9 9 -32 20 -52 11 -20 20 -44 20 -53 0 -10 4 -22 9
-27 6 -6 11 -32 12 -58 4 -71 19 -68 19 3 0 38 -4 59 -10 55 -6 -4 -10 5 -10
20 0 14 -12 47 -26 73 -32 57 -34 60 -34 39z"/>
<path d="M1428 1947 c-28 -23 -50 -63 -63 -112 -12 -45 -14 -56 -20 -110 -4
-39 -1 -32 14 31 31 129 60 186 106 205 13 5 15 8 5 8 -8 1 -27 -9 -42 -22z"/>
<path d="M1232 1788 c-30 -59 -60 -108 -67 -108 -8 0 -17 -5 -21 -12 -5 -7 -2
-9 9 -5 9 3 17 2 19 -3 2 -5 17 -11 33 -14 26 -6 27 -5 8 3 -13 6 -23 13 -23
16 0 3 23 52 51 110 28 58 49 108 47 113 -1 4 -27 -41 -56 -100z"/>
<path d="M1670 1824 c0 -4 18 -40 41 -80 22 -41 37 -79 33 -86 -5 -8 -2 -9 10
-5 10 4 23 7 29 8 7 0 3 4 -8 8 -11 5 -37 43 -59 85 -35 70 -46 86 -46 70z"/>
<path d="M2130 1790 c0 -5 7 -10 15 -10 11 0 15 -11 15 -41 0 -24 4 -38 10
-34 6 3 10 22 10 41 0 19 5 34 10 34 6 0 10 5 10 10 0 6 -16 10 -35 10 -19 0
-35 -4 -35 -10z"/>
<path d="M2210 1755 c0 -25 4 -45 9 -45 10 0 21 59 14 78 -11 27 -23 9 -23
-33z"/>
<path d="M2261 1774 c-12 -14 -20 -29 -16 -32 4 -4 14 2 22 13 14 19 15 18 11
-13 -3 -18 -1 -35 4 -38 4 -3 8 18 8 45 0 28 -1 51 -3 51 -2 0 -14 -12 -26
-26z"/>
<path d="M1285 1443 c-136 -29 -279 -100 -392 -195 -37 -31 -40 -38 -29 -53
12 -17 18 -14 77 34 79 65 219 134 324 162 112 30 307 30 418 0 107 -28 231
-91 311 -157 61 -50 70 -55 83 -41 14 14 12 19 -22 49 -109 98 -257 171 -407
202 -96 20 -269 20 -363 -1z"/>
<path d="M1318 1350 c-37 -8 -70 -18 -74 -22 -8 -8 11 -118 28 -160 13 -35 34
-41 104 -32 52 6 55 8 52 33 -2 22 -7 25 -28 22 -53 -10 -85 -6 -85 9 0 9 15
17 44 22 53 9 52 8 44 37 -4 18 -11 21 -29 17 -13 -3 -35 -9 -49 -12 -21 -5
-25 -3 -25 15 0 17 8 21 50 27 49 6 55 13 42 44 -6 14 -14 14 -74 0z"/>
<path d="M1597 1338 c-16 -13 -57 -138 -57 -177 0 -10 9 -21 20 -24 24 -6 26
-3 35 46 4 20 8 37 10 37 1 0 22 -7 45 -15 49 -17 49 -17 52 15 3 21 -3 25
-39 33 -26 5 -43 14 -43 22 0 23 16 26 60 10 49 -17 49 -17 52 15 3 20 -3 25
-47 36 -62 17 -67 17 -88 2z"/>
<path d="M1055 1250 c-17 -19 -17 -22 28 -79 26 -33 47 -63 47 -69 0 -14 -35
-42 -53 -42 -9 0 -38 26 -65 58 -46 56 -49 58 -69 43 -20 -16 -20 -17 26 -75
57 -73 96 -92 145 -72 18 8 41 24 50 37 29 42 20 78 -38 151 -52 66 -54 67
-71 48z"/>
<path d="M1828 1167 c-42 -29 -85 -57 -95 -63 -17 -11 -16 -13 9 -24 25 -12
32 -10 83 23 30 21 57 37 59 37 2 0 -1 -15 -6 -34 -8 -25 -15 -32 -28 -29 -24
6 -33 -12 -15 -27 8 -7 15 -22 15 -34 0 -12 9 -29 20 -39 11 -9 20 -15 20 -13
0 2 14 50 31 106 16 57 29 112 27 124 -5 35 -39 28 -120 -27z"/>
<path d="M1337 1075 c-71 -20 -149 -62 -204 -110 -44 -39 -47 -45 -32 -59 14
-15 19 -13 57 22 172 159 445 160 623 3 42 -37 48 -39 60 -25 28 34 -118 136
-242 169 -66 18 -197 18 -262 0z"/>
<path d="M1361 784 c-75 -38 -105 -86 -109 -180 -5 -86 19 -149 72 -188 29
-22 104 -52 110 -44 2 1 6 24 9 49 6 44 5 47 -19 53 -35 9 -64 62 -64 116 0
97 77 153 156 114 48 -23 64 -54 64 -120 0 -56 -24 -98 -65 -114 -19 -7 -21
-13 -16 -52 6 -40 8 -43 36 -41 43 3 106 52 135 103 32 59 33 155 2 217 -54
105 -195 145 -311 87z m220 -40 c40 -24 71 -81 77 -144 6 -61 -27 -133 -71
-160 -41 -25 -55 -14 -23 19 29 30 56 90 56 123 0 107 -97 195 -183 166 -69
-23 -125 -109 -115 -178 6 -37 39 -100 60 -113 23 -15 23 -27 1 -27 -22 0 -54
26 -75 60 -41 67 -29 176 26 229 18 17 46 36 62 41 47 14 149 5 185 -16z"/>
<path d="M0 780 c0 -11 3 -19 8 -19 4 1 60 1 125 0 122 -1 166 -16 50 -17 -59
-1 -69 -4 -90 -28 -12 -15 -23 -38 -23 -52 0 -26 40 -74 62 -74 7 0 -2 -9 -19
-20 -56 -34 -53 -107 5 -136 l23 -11 -23 -7 c-13 -3 -44 -6 -70 -6 -41 0 -48
-3 -48 -20 0 -19 7 -20 156 -20 l155 0 -3 48 -3 47 -102 -3 -103 -4 0 41 0 41
95 0 95 0 0 45 0 45 -95 0 -95 0 0 40 0 40 105 0 105 0 0 45 0 45 -155 0
c-148 0 -155 -1 -155 -20z"/>
<path d="M390 642 c0 -133 3 -163 18 -192 48 -92 226 -109 299 -29 33 37 43
92 43 242 l0 137 -55 0 -55 0 0 -147 c0 -82 -4 -153 -8 -159 -11 -16 -48 -34
-72 -34 -11 0 -32 11 -46 25 -25 25 -25 27 -22 170 l3 145 -52 0 -53 0 0 -158z
m70 -12 c0 -69 5 -130 12 -144 6 -14 30 -35 53 -46 39 -19 44 -19 78 -5 61 25
71 51 75 197 4 111 6 127 19 116 12 -9 14 -36 10 -138 -6 -176 -27 -203 -156
-197 -57 2 -66 6 -92 35 -29 32 -29 33 -29 165 0 74 3 137 6 140 18 18 24 -15
24 -123z"/>
<path d="M830 584 l0 -215 51 3 51 3 -1 167 -2 166 63 -5 c74 -7 88 -15 88
-54 0 -38 -32 -69 -70 -69 -16 0 -30 -3 -30 -7 0 -3 17 -51 38 -105 l37 -98
58 0 58 0 -32 58 c-18 31 -37 63 -42 70 -11 14 -12 14 26 30 39 17 67 68 67
125 0 114 -53 146 -237 147 l-123 0 0 -216z m294 146 c50 -50 41 -112 -23
-175 -17 -16 -31 -35 -31 -42 0 -16 -30 -5 -30 11 0 7 18 31 40 55 50 53 52
83 8 128 -28 29 -38 33 -84 33 -36 0 -59 -6 -75 -19 -23 -18 -24 -26 -27 -159
-3 -134 -4 -140 -23 -135 -19 5 -20 14 -18 157 1 89 6 156 12 164 8 10 38 13
119 10 99 -3 110 -5 132 -28z"/>
<path d="M1775 768 c-24 -22 -38 -45 -42 -70 l-6 -38 37 0 c28 0 36 4 36 18 0
26 42 62 71 62 14 0 36 -11 48 -24 20 -21 22 -31 16 -63 -5 -31 -24 -55 -106
-134 -77 -74 -99 -102 -99 -122 l0 -27 145 0 145 0 0 35 0 35 -87 0 -87 0 57
51 c72 64 110 128 110 183 0 82 -50 126 -146 126 -51 0 -61 -4 -92 -32z m62
-334 c5 -15 -28 -27 -40 -15 -5 5 -6 14 -2 21 8 13 37 9 42 -6z"/>
<path d="M2117 782 c-92 -57 -103 -295 -17 -377 28 -27 38 -30 96 -30 63 0 67
2 99 37 43 47 58 104 53 198 -5 88 -34 152 -78 175 -39 20 -118 19 -153 -3z
m113 -52 c26 -14 40 -63 40 -146 0 -86 -10 -117 -45 -140 -58 -38 -105 25
-105 140 0 121 45 181 110 146z"/>
<path d="M2415 768 c-24 -22 -38 -45 -42 -70 l-6 -38 37 0 c24 0 36 5 36 14 0
7 9 25 21 40 25 32 66 34 97 6 47 -44 19 -104 -99 -212 -72 -66 -89 -87 -89
-110 l0 -28 145 0 145 0 0 35 0 35 -85 0 -85 0 68 67 c87 86 113 144 91 206
-20 59 -66 87 -141 87 -52 0 -62 -4 -93 -32z m62 -334 c5 -15 -20 -24 -37 -14
-7 4 -9 13 -5 19 8 14 37 11 42 -5z"/>
<path d="M2751 662 c-59 -89 -91 -147 -91 -165 l0 -27 79 0 79 0 4 35 c4 35 4
35 -34 35 -21 0 -38 2 -38 5 0 2 27 46 60 96 l60 91 0 -181 0 -181 35 0 35 0
0 55 c0 54 0 55 30 55 27 0 30 3 30 30 0 27 -3 30 -30 30 l-30 0 0 130 0 130
-49 0 -48 0 -92 -138z m179 -167 c-17 -21 -34 -4 -25 25 6 20 9 21 23 7 13
-13 13 -19 2 -32z"/>
<path d="M711 226 c-34 -19 -50 -54 -51 -109 0 -41 5 -53 29 -78 26 -25 37
-29 86 -29 70 0 105 28 105 85 l0 35 -65 0 c-51 0 -65 -3 -65 -15 0 -11 13
-15 54 -15 49 0 54 -2 49 -20 -14 -52 -97 -67 -138 -25 -27 26 -34 89 -15 125
23 43 115 46 138 5 5 -10 17 -15 28 -13 17 3 16 7 -13 36 -26 26 -39 32 -75
32 -24 -1 -54 -7 -67 -14z"/>
<path d="M924 224 c3 -9 6 -60 6 -115 l0 -99 80 0 c47 0 80 4 80 10 0 6 -30
10 -70 10 l-70 0 0 40 0 40 65 0 c52 0 65 3 65 16 0 13 -11 15 -62 13 l-63 -3
-3 37 -3 37 70 0 c56 0 71 3 71 15 0 12 -16 15 -86 15 -74 0 -85 -2 -80 -16z"/>
<path d="M1130 125 c0 -96 3 -115 15 -115 12 0 15 18 15 100 l0 101 58 -3 c56
-3 57 -4 60 -35 4 -37 -23 -57 -63 -47 -14 3 -25 3 -25 -1 0 -15 92 -113 110
-118 30 -8 24 5 -20 48 l-40 39 32 16 c28 13 33 21 36 57 4 57 -20 73 -110 73
l-68 0 0 -115z"/>
<path d="M1350 125 c0 -96 3 -115 15 -115 12 0 15 17 15 97 l0 98 43 -73 c23
-39 45 -72 49 -72 4 0 24 29 45 65 21 35 40 65 43 65 3 0 4 -40 2 -90 -3 -77
-1 -90 12 -90 14 0 16 17 16 116 0 140 -10 146 -75 41 l-43 -68 -43 71 c-28
44 -50 70 -61 70 -16 0 -18 -12 -18 -115z"/>
<path d="M1668 125 c-37 -95 -42 -115 -29 -115 12 0 27 27 51 95 19 52 37 95
40 95 3 0 15 -25 27 -55 l21 -55 -34 0 c-24 0 -34 -5 -34 -15 0 -11 11 -15 40
-15 34 0 41 -4 46 -25 4 -15 13 -25 25 -25 16 0 17 3 4 33 -7 17 -27 69 -45
115 -44 115 -55 112 -112 -33z"/>
<path d="M1870 125 c0 -94 3 -115 15 -115 11 0 15 19 17 91 l3 91 60 -88 c33
-49 68 -90 78 -92 15 -3 17 7 17 112 0 100 -2 116 -16 116 -14 0 -15 -13 -12
-95 1 -52 3 -95 2 -95 0 0 -29 43 -65 95 -89 131 -99 129 -99 -20z"/>
<path d="M2096 228 c4 -7 22 -34 41 -59 28 -40 33 -55 33 -103 0 -43 3 -56 15
-56 11 0 15 13 15 53 0 47 5 60 45 115 37 51 42 62 27 62 -12 0 -31 -19 -51
-52 l-32 -51 -35 51 c-19 29 -41 52 -50 52 -9 0 -12 -5 -8 -12z"/>
</g>
</svg>
